<svg xmlns="http://www.w3.org/2000/svg" width="100%" height="100%" viewBox="0 0 96 52"><path d="M 1.338 50.261 C 6.064 48.801 10.88 44.621 14.702 41.741 C 26.234 33.049 37.515 23.323 47.279 12.713 C 49.758 10.019 52.045 7.17 53.776 3.95 C 54.271 3.03 55.509 0.664 54.485 0.906 C 50.962 1.737 45.816 6.634 43.43 8.543 C 37.62 13.196 32.116 18.143 27.203 23.727 C 23.755 27.646 11.152 41.401 18.766 47.401 C 22.73 50.524 30.469 49.292 34.963 48.556 C 43.808 47.11 52.757 44.083 60.951 40.524 C 61.685 40.205 67.638 36.684 66.371 38.029 C 65.067 39.412 62.647 42.012 62.86 44.114 C 63.163 47.108 76.929 41.427 78.81 42.714 C 79.325 43.067 78.505 44.362 79.18 44.662 C 80.487 45.244 82.735 43.87 83.799 43.262 C 87.165 41.341 91.149 41.879 95.007 41.498" stroke="var(--token-7ebf79bf-4655-44c5-8fe0-20ee3a91fd50, rgb(139, 139, 139)) /* {&amp;quot;name&amp;quot;:&amp;quot;Weak&amp;quot;} */" stroke-width="1.5" stroke-linecap="round" fill="transparent" opacity="1" pathLength="1" stroke-dashoffset="0px" stroke-dasharray="0.99px 1px"/></svg>